<svg width="49" height="48" viewBox="0 0 49 48" fill="none" xmlns="http://www.w3.org/2000/svg">
<path d="M26.5 42H7.7C7.38174 42 7.07652 41.8736 6.85147 41.6485C6.62643 41.4235 6.5 41.1183 6.5 40.8V7.2C6.5 6.88174 6.62643 6.57652 6.85147 6.35147C7.07652 6.12643 7.38174 6 7.7 6H41.3C41.6183 6 41.9235 6.12643 42.1485 6.35147C42.3736 6.57652 42.5 6.88174 42.5 7.2V26M32.5 38H38.5M38.5 38H44.5M38.5 38V32M38.5 38V44" stroke="#D3D3D3" stroke-width="3" stroke-linecap="round" stroke-linejoin="round"/>
<path d="M20.296 17.026C20.1136 16.9216 19.907 16.867 19.6969 16.8675C19.4868 16.868 19.2805 16.9237 19.0987 17.029C18.9168 17.1343 18.7658 17.2855 18.6608 17.4675C18.5557 17.6495 18.5003 17.8558 18.5 18.066V29.932C18.4999 30.1423 18.5551 30.3489 18.66 30.5311C18.7649 30.7134 18.9159 30.8649 19.0978 30.9704C19.2797 31.0759 19.4861 31.1318 19.6964 31.1324C19.9067 31.1331 20.1135 31.0784 20.296 30.974L30.676 25.042C30.8597 24.937 31.0124 24.7854 31.1187 24.6024C31.2249 24.4194 31.2808 24.2116 31.2808 24C31.2808 23.7884 31.2249 23.5806 31.1187 23.3976C31.0124 23.2146 30.8597 23.0629 30.676 22.958L20.296 17.026Z" stroke="#D3D3D3" stroke-width="3" stroke-linecap="round" stroke-linejoin="round"/>
</svg>
