<svg width="16" height="16" viewBox="0 0 16 16" fill="none" xmlns="http://www.w3.org/2000/svg">
<path fill-rule="evenodd" clip-rule="evenodd" d="M2.36 0.200001H2.3C2.0252 0.200001 1.7888 0.200001 1.58 0.249201C1.25676 0.326439 0.961217 0.491656 0.726114 0.726548C0.49101 0.96144 0.325526 1.25683 0.247997 1.58C0.199997 1.7888 0.199997 2.024 0.199997 2.3V5.3C0.199997 5.5748 0.199997 5.8112 0.249197 6.02C0.326435 6.34324 0.491653 6.63878 0.726544 6.87388C0.961436 7.10899 1.25683 7.27447 1.58 7.352C1.7888 7.4 2.024 7.4 2.3 7.4H5.3C5.5748 7.4 5.8112 7.4 6.02 7.3508C6.34323 7.27356 6.63878 7.10835 6.87388 6.87345C7.10898 6.63856 7.27447 6.34317 7.352 6.02C7.4 5.8112 7.4 5.576 7.4 5.3V2.3C7.4 2.0252 7.4 1.7888 7.3508 1.58C7.27356 1.25676 7.10834 0.961221 6.87345 0.726117C6.63856 0.491014 6.34316 0.32553 6.02 0.248001C5.8112 0.200001 5.576 0.200001 5.3 0.200001H5.24H2.36ZM1.8596 1.4168C1.9112 1.4048 1.9916 1.4 2.36 1.4H5.24C5.6096 1.4 5.6888 1.4036 5.7404 1.4168C5.84819 1.44258 5.94674 1.49771 6.02511 1.57608C6.10349 1.65446 6.15862 1.75301 6.1844 1.8608C6.1964 1.9112 6.2 1.9904 6.2 2.36V5.24C6.2 5.6096 6.1964 5.6888 6.1832 5.7404C6.15742 5.8482 6.10229 5.94675 6.02391 6.02512C5.94554 6.10349 5.84699 6.15862 5.7392 6.1844C5.69 6.1952 5.6108 6.2 5.24 6.2H2.36C1.9904 6.2 1.9112 6.1964 1.8596 6.1832C1.7518 6.15742 1.65325 6.10229 1.57488 6.02392C1.49651 5.94555 1.44137 5.847 1.4156 5.7392C1.4048 5.69 1.4 5.6108 1.4 5.24V2.36C1.4 1.9904 1.4036 1.9112 1.4168 1.8596C1.44257 1.7518 1.49771 1.65326 1.57608 1.57488C1.65445 1.49651 1.753 1.44138 1.8608 1.4156M10.76 0.200001H10.7C10.4252 0.200001 10.1888 0.200001 9.98 0.249201C9.65676 0.326439 9.36122 0.491656 9.12611 0.726548C8.89101 0.96144 8.72553 1.25683 8.648 1.58C8.6 1.7888 8.6 2.024 8.6 2.3V5.3C8.6 5.5748 8.6 5.8112 8.6492 6.02C8.72644 6.34324 8.89165 6.63878 9.12654 6.87388C9.36144 7.10899 9.65683 7.27447 9.98 7.352C10.1888 7.4 10.424 7.4 10.7 7.4H13.7C13.9748 7.4 14.2112 7.4 14.42 7.3508C14.7432 7.27356 15.0388 7.10835 15.2739 6.87345C15.509 6.63856 15.6745 6.34317 15.752 6.02C15.8 5.8112 15.8 5.576 15.8 5.3V2.3C15.8 2.0252 15.8 1.7888 15.7508 1.58C15.6736 1.25676 15.5083 0.961221 15.2734 0.726117C15.0386 0.491014 14.7432 0.32553 14.42 0.248001C14.2112 0.200001 13.976 0.200001 13.7 0.200001H13.64H10.76ZM10.2596 1.4168C10.3112 1.4048 10.3916 1.4 10.76 1.4H13.64C14.0096 1.4 14.0888 1.4036 14.1404 1.4168C14.2482 1.44258 14.3467 1.49771 14.4251 1.57608C14.5035 1.65446 14.5586 1.75301 14.5844 1.8608C14.5964 1.9112 14.6 1.9904 14.6 2.36V5.24C14.6 5.6096 14.5952 5.6888 14.5832 5.7404C14.5574 5.8482 14.5023 5.94675 14.4239 6.02512C14.3455 6.10349 14.247 6.15862 14.1392 6.1844C14.0888 6.1964 14.0096 6.2 13.64 6.2H10.76C10.3904 6.2 10.3112 6.1964 10.2596 6.1832C10.1518 6.15742 10.0533 6.10229 9.97488 6.02392C9.89651 5.94555 9.84137 5.847 9.8156 5.7392C9.8048 5.69 9.8 5.6108 9.8 5.24V2.36C9.8 1.9904 9.8036 1.9112 9.8168 1.8596C9.84258 1.7518 9.89771 1.65326 9.97608 1.57488C10.0545 1.49651 10.153 1.44138 10.2608 1.4156M2.3 8.6H5.3C5.5748 8.6 5.8112 8.6 6.02 8.6492C6.34323 8.72644 6.63878 8.89166 6.87388 9.12655C7.10898 9.36144 7.27447 9.65683 7.352 9.98C7.4 10.1888 7.4 10.424 7.4 10.7V13.7C7.4 13.9748 7.4 14.2112 7.3508 14.42C7.27356 14.7432 7.10834 15.0388 6.87345 15.2739C6.63856 15.509 6.34316 15.6745 6.02 15.752C5.8112 15.8 5.576 15.8 5.3 15.8H2.3C2.0252 15.8 1.7888 15.8 1.58 15.7508C1.25676 15.6736 0.961217 15.5083 0.726114 15.2735C0.49101 15.0386 0.325526 14.7432 0.247997 14.42C0.199997 14.2112 0.199997 13.976 0.199997 13.7V10.7C0.199997 10.4252 0.199997 10.1888 0.249197 9.98C0.326435 9.65676 0.491653 9.36122 0.726544 9.12612C0.961436 8.89101 1.25683 8.72553 1.58 8.648C1.7888 8.6 2.024 8.6 2.3 8.6ZM2.36 9.8C1.9904 9.8 1.9112 9.8036 1.8596 9.8168C1.7518 9.84258 1.65325 9.89771 1.57488 9.97608C1.49651 10.0545 1.44137 10.153 1.4156 10.2608C1.4048 10.31 1.4 10.3892 1.4 10.76V13.64C1.4 14.0096 1.4036 14.0888 1.4168 14.1404C1.44257 14.2482 1.49771 14.3467 1.57608 14.4251C1.65445 14.5035 1.753 14.5586 1.8608 14.5844C1.9112 14.5964 1.9904 14.6 2.36 14.6H5.24C5.6096 14.6 5.6888 14.5952 5.7404 14.5832C5.84819 14.5574 5.94674 14.5023 6.02511 14.4239C6.10349 14.3455 6.15862 14.247 6.1844 14.1392C6.1964 14.0888 6.2 14.0096 6.2 13.64V10.76C6.2 10.3904 6.1964 10.3112 6.1832 10.2596C6.15742 10.1518 6.10229 10.0533 6.02391 9.97488C5.94554 9.89651 5.84699 9.84138 5.7392 9.8156C5.69 9.8048 5.6108 9.8 5.24 9.8H2.36ZM10.76 8.6H10.7C10.4252 8.6 10.1888 8.6 9.98 8.6492C9.65676 8.72644 9.36122 8.89166 9.12611 9.12655C8.89101 9.36144 8.72553 9.65683 8.648 9.98C8.6 10.1888 8.6 10.424 8.6 10.7V13.7C8.6 13.9748 8.6 14.2112 8.6492 14.42C8.72644 14.7432 8.89165 15.0388 9.12654 15.2739C9.36144 15.509 9.65683 15.6745 9.98 15.752C10.1888 15.8012 10.4252 15.8012 10.7 15.8012H13.7C13.9748 15.8012 14.2112 15.8012 14.42 15.752C14.743 15.6746 15.0383 15.5093 15.2732 15.2744C15.5081 15.0395 15.6734 14.7442 15.7508 14.4212C15.8 14.2124 15.8 13.976 15.8 13.7012V10.7C15.8 10.4252 15.8 10.1888 15.7508 9.98C15.6736 9.65676 15.5083 9.36122 15.2734 9.12612C15.0386 8.89101 14.7432 8.72553 14.42 8.648C14.2112 8.6 13.976 8.6 13.7 8.6H13.64H10.76ZM10.2596 9.8168C10.3112 9.8048 10.3916 9.8 10.76 9.8H13.64C14.0096 9.8 14.0888 9.8036 14.1404 9.8168C14.2482 9.84258 14.3467 9.89771 14.4251 9.97608C14.5035 10.0545 14.5586 10.153 14.5844 10.2608C14.5964 10.3112 14.6 10.3904 14.6 10.76V13.64C14.6 14.0096 14.5952 14.0888 14.5832 14.1404C14.5574 14.2482 14.5023 14.3467 14.4239 14.4251C14.3455 14.5035 14.247 14.5586 14.1392 14.5844C14.0888 14.5964 14.0096 14.6 13.64 14.6H10.76C10.3904 14.6 10.3112 14.5952 10.2596 14.5832C10.1518 14.5574 10.0533 14.5023 9.97488 14.4239C9.89651 14.3455 9.84137 14.247 9.8156 14.1392C9.8048 14.09 9.8 14.0108 9.8 13.64V10.76C9.8 10.3904 9.8036 10.3112 9.8168 10.2596C9.84258 10.1518 9.89771 10.0533 9.97608 9.97488C10.0545 9.89651 10.153 9.84138 10.2608 9.8156" fill="#3E3E3E"/>
<path d="M2.36 0.200001H2.3C2.0252 0.200001 1.7888 0.200001 1.58 0.249201C1.25676 0.326439 0.961217 0.491656 0.726114 0.726548C0.49101 0.96144 0.325526 1.25683 0.247997 1.58C0.199997 1.7888 0.199997 2.024 0.199997 2.3V5.3C0.199997 5.5748 0.199997 5.8112 0.249197 6.02C0.326435 6.34324 0.491653 6.63878 0.726544 6.87388C0.961436 7.10899 1.25683 7.27447 1.58 7.352C1.7888 7.4 2.024 7.4 2.3 7.4H5.3C5.5748 7.4 5.8112 7.4 6.02 7.3508C6.34323 7.27356 6.63878 7.10835 6.87388 6.87345C7.10898 6.63856 7.27447 6.34317 7.352 6.02C7.4 5.8112 7.4 5.576 7.4 5.3V2.3C7.4 2.0252 7.4 1.7888 7.3508 1.58C7.27356 1.25676 7.10834 0.961221 6.87345 0.726117C6.63856 0.491014 6.34316 0.32553 6.02 0.248001C5.8112 0.200001 5.576 0.200001 5.3 0.200001H5.24H2.36Z" fill="#3E3E3E"/>
<path d="M10.76 0.200001H10.7C10.4252 0.200001 10.1888 0.200001 9.98 0.249201C9.65676 0.326439 9.36122 0.491656 9.12611 0.726548C8.89101 0.96144 8.72553 1.25683 8.648 1.58C8.6 1.7888 8.6 2.024 8.6 2.3V5.3C8.6 5.5748 8.6 5.8112 8.6492 6.02C8.72644 6.34324 8.89165 6.63878 9.12654 6.87388C9.36144 7.10899 9.65683 7.27447 9.98 7.352C10.1888 7.4 10.424 7.4 10.7 7.4H13.7C13.9748 7.4 14.2112 7.4 14.42 7.3508C14.7432 7.27356 15.0388 7.10835 15.2739 6.87345C15.509 6.63856 15.6745 6.34317 15.752 6.02C15.8 5.8112 15.8 5.576 15.8 5.3V2.3C15.8 2.0252 15.8 1.7888 15.7508 1.58C15.6736 1.25676 15.5083 0.961221 15.2734 0.726117C15.0386 0.491014 14.7432 0.32553 14.42 0.248001C14.2112 0.200001 13.976 0.200001 13.7 0.200001H13.64H10.76Z" fill="#3E3E3E"/>
<path d="M10.76 8.6H10.7C10.4252 8.6 10.1888 8.6 9.98 8.6492C9.65676 8.72644 9.36122 8.89166 9.12611 9.12655C8.89101 9.36144 8.72553 9.65683 8.648 9.98C8.6 10.1888 8.6 10.424 8.6 10.7V13.7C8.6 13.9748 8.6 14.2112 8.6492 14.42C8.72644 14.7432 8.89165 15.0388 9.12654 15.2739C9.36144 15.509 9.65683 15.6745 9.98 15.752C10.1888 15.8012 10.4252 15.8012 10.7 15.8012H13.7C13.9748 15.8012 14.2112 15.8012 14.42 15.752C14.743 15.6746 15.0383 15.5093 15.2732 15.2744C15.5081 15.0395 15.6734 14.7442 15.7508 14.4212C15.8 14.2124 15.8 13.976 15.8 13.7012V10.7C15.8 10.4252 15.8 10.1888 15.7508 9.98C15.6736 9.65676 15.5083 9.36122 15.2734 9.12612C15.0386 8.89101 14.7432 8.72553 14.42 8.648C14.2112 8.6 13.976 8.6 13.7 8.6H13.64H10.76Z" fill="#3E3E3E"/>
<path d="M2.36 9.8C1.9904 9.8 1.9112 9.8036 1.8596 9.8168C1.7518 9.84258 1.65325 9.89771 1.57488 9.97608C1.49651 10.0545 1.44137 10.153 1.4156 10.2608C1.4048 10.31 1.4 10.3892 1.4 10.76V13.64C1.4 14.0096 1.4036 14.0888 1.4168 14.1404C1.44257 14.2482 1.49771 14.3467 1.57608 14.4251C1.65445 14.5035 1.753 14.5586 1.8608 14.5844C1.9112 14.5964 1.9904 14.6 2.36 14.6H5.24C5.6096 14.6 5.6888 14.5952 5.7404 14.5832C5.84819 14.5574 5.94674 14.5023 6.02511 14.4239C6.10349 14.3455 6.15862 14.247 6.1844 14.1392C6.1964 14.0888 6.2 14.0096 6.2 13.64V10.76C6.2 10.3904 6.1964 10.3112 6.1832 10.2596C6.15742 10.1518 6.10229 10.0533 6.02391 9.97488C5.94554 9.89651 5.84699 9.84138 5.7392 9.8156C5.69 9.8048 5.6108 9.8 5.24 9.8H2.36Z" fill="#3E3E3E"/>
</svg>
