<svg width="18" height="18" viewBox="0 0 18 18" fill="none" xmlns="http://www.w3.org/2000/svg">
<g clip-path="url(#clip0_3_300)">
<path d="M3.25 12.7659V12.7645C3.98246 11.972 4.87083 11.3395 5.85936 10.9067C6.84963 10.4731 7.91896 10.2492 9 10.2492C10.081 10.2492 11.1504 10.4731 12.1406 10.9067C13.1288 11.3394 14.0169 11.9716 14.7493 12.7637C14.7496 12.7642 14.7498 12.7647 14.75 12.7652V15.75H3.25V12.7659ZM3.25 12.7659C3.24998 12.7661 3.24997 12.7662 3.24997 12.7664L3.24827 12.7664C3.24756 12.7671 3.24685 12.7679 3.24614 12.7687L3.24358 12.7663L2.5 12.76M3.25 12.7659C3.25011 12.7648 3.25055 12.7638 3.25126 12.7631L3.25 12.7619V12.76H3.24788L2.695 12.26M2.5 12.76H3.23674L2.695 12.26M2.5 12.76C2.50157 12.5751 2.57096 12.3972 2.695 12.26M2.5 12.76L15.305 12.26C14.5016 11.3895 13.5266 10.6948 12.4415 10.2197C11.3563 9.74452 10.1846 9.49922 9 9.49922C7.81541 9.49922 6.64365 9.74452 5.55853 10.2197C4.4734 10.6948 3.49843 11.3895 2.695 12.26" stroke="#83888B" stroke-width="1.5"/>
<path d="M11.75 5C11.75 6.51878 10.5188 7.75 9 7.75C7.48122 7.75 6.25 6.51878 6.25 5C6.25 3.48122 7.48122 2.25 9 2.25C10.5188 2.25 11.75 3.48122 11.75 5Z" stroke="#83888B" stroke-width="1.5"/>
<path d="M15.3347 0.863742C15.8313 2.02703 16.6982 2.99371 17.8008 3.61357C17.8193 3.62396 17.8348 3.63911 17.8455 3.65744C17.8562 3.67578 17.8619 3.69665 17.8619 3.7179C17.8619 3.73915 17.8562 3.76001 17.8455 3.77835C17.8348 3.79669 17.8193 3.81183 17.8008 3.82222C16.6982 4.44216 15.8312 5.40899 15.3347 6.57243C15.3249 6.59451 15.3089 6.61327 15.2886 6.62644C15.2684 6.63961 15.2447 6.64662 15.2206 6.64662C15.1964 6.64662 15.1728 6.63961 15.1525 6.62644C15.1322 6.61327 15.1162 6.59451 15.1064 6.57243C14.6099 5.40899 13.743 4.44216 12.6403 3.82222C12.6218 3.81183 12.6064 3.79669 12.5956 3.77835C12.5849 3.76001 12.5792 3.73915 12.5792 3.7179C12.5792 3.69665 12.5849 3.67578 12.5956 3.65744C12.6064 3.63911 12.6218 3.62396 12.6403 3.61357C13.7429 2.99371 14.6098 2.02703 15.1064 0.863742C15.1162 0.84166 15.1322 0.822897 15.1525 0.809729C15.1728 0.79656 15.1964 0.789551 15.2206 0.789551C15.2447 0.789551 15.2684 0.79656 15.2886 0.809729C15.3089 0.822897 15.3249 0.84166 15.3347 0.863742Z" fill="#83888B"/>
</g>
<defs>
<clipPath id="clip0_3_300">
<rect width="18" height="18" fill="white"/>
</clipPath>
</defs>
</svg>
