<svg width="48" height="49" viewBox="0 0 48 49" fill="none" xmlns="http://www.w3.org/2000/svg">
<g filter="url(#filter0_f_3_347)">
<path d="M32.2465 41.9197H15.6307L14.9525 41.9143C12.1468 41.8687 11.0309 41.5269 9.90643 40.923C8.69553 40.2728 7.74519 39.3185 7.09758 38.1026L6.96346 37.8414C6.42404 36.7473 6.12837 35.5398 6.10642 32.703L6.1051 15.6702C6.1051 12.3442 6.44998 11.1381 7.09758 9.92217C7.74519 8.70625 8.69553 7.75197 9.90643 7.10169L10.1665 6.96702C11.2561 6.42536 12.4587 6.12846 15.2839 6.10642L32.2465 6.1051C35.5587 6.1051 36.7598 6.45141 37.9707 7.10169C39.1817 7.75197 40.132 8.70625 40.7796 9.92217L40.9137 10.1833C41.4531 11.2774 41.7488 12.485 41.7707 15.3218L41.7721 32.3546L41.7668 33.0356C41.7213 35.8529 41.3809 36.9736 40.7796 38.1026C40.132 39.3185 39.1817 40.2728 37.9707 40.923L37.7106 41.0578C36.5775 41.6211 35.3221 41.9197 32.2465 41.9197Z" fill="#C4D3E0" fill-opacity="0.2"/>
</g>
<path d="M41.7721 23.9273V32.3101C41.7721 35.6522 41.4303 36.8641 40.7885 38.0859C40.1468 39.3078 39.205 40.2667 38.0049 40.9201C36.805 41.5735 35.6147 41.9215 32.3323 41.9215H24.0992V23.9273H41.7721Z" fill="url(#paint0_linear_3_347)"/>
<path d="M41.7721 23.9273V32.3101C41.7721 35.6522 41.4303 36.8641 40.7885 38.0859C40.1468 39.3078 39.205 40.2667 38.0049 40.9201C36.805 41.5735 35.6147 41.9215 32.3323 41.9215H24.0992V23.9273H41.7721Z" fill="url(#paint1_linear_3_347)"/>
<path d="M24.0992 6.25433H32.3323C35.6147 6.25433 36.805 6.59611 38.0049 7.23788C39.205 7.87965 40.1468 8.82142 40.7885 10.0214C41.4303 11.2214 41.7721 12.4117 41.7721 15.6941V23.9272H24.0992V6.25433Z" fill="url(#paint2_linear_3_347)"/>
<path d="M15.7165 6.25433H24.0993V41.9213H15.7165C12.3744 41.9213 11.1625 41.5764 9.94068 40.9288C8.71886 40.2812 7.75997 39.3309 7.10653 38.12C6.45308 36.909 6.1051 35.7079 6.1051 32.3957V15.78C6.1051 12.4677 6.45308 11.2666 7.10653 10.0557C7.75997 8.84476 8.71886 7.89442 9.94068 7.24682C11.1625 6.59921 12.3744 6.25433 15.7165 6.25433Z" fill="url(#paint3_linear_3_347)"/>
<path d="M18.053 16.2415C17.8513 16.126 17.6228 16.0656 17.3903 16.0662C17.1579 16.0668 16.9297 16.1284 16.7285 16.2449C16.5274 16.3613 16.3603 16.5286 16.2441 16.7299C16.1279 16.9312 16.0666 17.1595 16.0663 17.3919V30.5182C16.0662 30.7508 16.1272 30.9794 16.2433 31.181C16.3594 31.3826 16.5264 31.5502 16.7276 31.6669C16.9288 31.7837 17.1572 31.8455 17.3898 31.8462C17.6224 31.8469 17.8511 31.7864 18.053 31.6709L29.5355 25.1088C29.7387 24.9928 29.9077 24.825 30.0252 24.6226C30.1427 24.4201 30.2046 24.1902 30.2046 23.9562C30.2046 23.7221 30.1427 23.4922 30.0252 23.2898C29.9077 23.0874 29.7387 22.9196 29.5355 22.8035L18.053 16.2415Z" fill="white"/>
<path d="M24.1633 17.4686C23.9937 17.3715 23.8015 17.3207 23.606 17.3212C23.4106 17.3217 23.2187 17.3735 23.0495 17.4715C22.8804 17.5694 22.7399 17.7101 22.6422 17.8793C22.5445 18.0486 22.4929 18.2406 22.4926 18.436V29.4741C22.4926 29.6697 22.5439 29.8619 22.6415 30.0314C22.7391 30.2009 22.8795 30.3419 23.0487 30.44C23.2179 30.5382 23.41 30.5902 23.6056 30.5908C23.8012 30.5913 23.9935 30.5405 24.1633 30.4433L33.819 24.9253C33.9899 24.8277 34.132 24.6866 34.2308 24.5164C34.3296 24.3461 34.3816 24.1528 34.3816 23.956C34.3816 23.7592 34.3296 23.5658 34.2308 23.3956C34.132 23.2254 33.9899 23.0843 33.819 22.9867L24.1633 17.4686Z" fill="white"/>
<defs>
<filter id="filter0_f_3_347" x="5.23295" y="5.23295" width="37.4113" height="37.5589" filterUnits="userSpaceOnUse" color-interpolation-filters="sRGB">
<feFlood flood-opacity="0" result="BackgroundImageFix"/>
<feBlend mode="normal" in="SourceGraphic" in2="BackgroundImageFix" result="shape"/>
<feGaussianBlur stdDeviation="0.436076" result="effect1_foregroundBlur_3_347"/>
</filter>
<linearGradient id="paint0_linear_3_347" x1="32.9357" y1="23.9273" x2="42.0295" y2="41.7904" gradientUnits="userSpaceOnUse">
<stop stop-color="#DEF2FE"/>
<stop offset="1" stop-color="#DBF1FE"/>
</linearGradient>
<linearGradient id="paint1_linear_3_347" x1="30.7266" y1="23.9273" x2="35.297" y2="41.8827" gradientUnits="userSpaceOnUse">
<stop stop-color="#3C50E0"/>
<stop offset="1" stop-color="#6275FF"/>
</linearGradient>
<linearGradient id="paint2_linear_3_347" x1="30.7266" y1="6.25433" x2="35.1447" y2="23.9271" gradientUnits="userSpaceOnUse">
<stop stop-color="#3C50E0"/>
<stop offset="1" stop-color="#6275FF"/>
</linearGradient>
<linearGradient id="paint3_linear_3_347" x1="12.8529" y1="6.25433" x2="27.9296" y2="36.6794" gradientUnits="userSpaceOnUse">
<stop stop-color="#3C50E0"/>
<stop offset="1" stop-color="#6275FF"/>
</linearGradient>
</defs>
</svg>
