<svg width="18" height="18" viewBox="0 0 18 18" fill="none" xmlns="http://www.w3.org/2000/svg">
<g clip-path="url(#clip0_3_318)">
<path d="M9 4.5V13.5M11.25 7.125C11.25 6.09 10.2427 5.25 9 5.25C7.75725 5.25 6.75 6.09 6.75 7.125C6.75 8.16 7.75725 9 9 9C10.2427 9 11.25 9.84 11.25 10.875C11.25 11.91 10.2427 12.75 9 12.75C7.75725 12.75 6.75 11.91 6.75 10.875" stroke="#83888B" stroke-width="1.5" stroke-linecap="round"/>
<path d="M5.25 2.50351C6.38964 1.84418 7.68338 1.49798 9 1.50001C13.1423 1.50001 16.5 4.85776 16.5 9.00001C16.5 13.1423 13.1423 16.5 9 16.5C4.85775 16.5 1.5 13.1423 1.5 9.00001C1.5 7.63426 1.86525 6.35251 2.5035 5.25001" stroke="#83888B" stroke-width="1.5" stroke-linecap="round"/>
</g>
<defs>
<clipPath id="clip0_3_318">
<rect width="18" height="18" fill="white"/>
</clipPath>
</defs>
</svg>
