<svg width="14" height="14" viewBox="0 0 14 14" fill="none" xmlns="http://www.w3.org/2000/svg">
<path d="M7.00004 13.5953C3.31804 13.5953 0.333374 10.6107 0.333374 6.92866C0.333374 3.24733 3.31804 0.261993 7.00004 0.261993C10.682 0.261993 13.6667 3.24733 13.6667 6.92866C13.6667 10.6107 10.682 13.5953 7.00004 13.5953ZM7.00004 3.59533C6.82323 3.59533 6.65366 3.66556 6.52864 3.79059C6.40361 3.91561 6.33337 4.08518 6.33337 4.26199V7.59533C6.33337 7.77214 6.40361 7.94171 6.52864 8.06673C6.65366 8.19176 6.82323 8.26199 7.00004 8.26199C7.17685 8.26199 7.34642 8.19176 7.47145 8.06673C7.59647 7.94171 7.66671 7.77214 7.66671 7.59533V4.26199C7.66671 4.08518 7.59647 3.91561 7.47145 3.79059C7.34642 3.66556 7.17685 3.59533 7.00004 3.59533ZM7.00004 10.262C7.17685 10.262 7.34642 10.1918 7.47145 10.0667C7.59647 9.94171 7.66671 9.77214 7.66671 9.59533C7.66671 9.41852 7.59647 9.24895 7.47145 9.12392C7.34642 8.9989 7.17685 8.92866 7.00004 8.92866C6.82323 8.92866 6.65366 8.9989 6.52864 9.12392C6.40361 9.24895 6.33337 9.41852 6.33337 9.59533C6.33337 9.77214 6.40361 9.94171 6.52864 10.0667C6.65366 10.1918 6.82323 10.262 7.00004 10.262Z" fill="#6A7383"/>
</svg>
