<svg width="16" height="16" viewBox="0 0 16 16" fill="none" xmlns="http://www.w3.org/2000/svg">
<path d="M8.00004 14.5953C4.31804 14.5953 1.33337 11.6107 1.33337 7.92866C1.33337 4.24733 4.31804 1.26199 8.00004 1.26199C11.682 1.26199 14.6667 4.24733 14.6667 7.92866C14.6667 11.6107 11.682 14.5953 8.00004 14.5953ZM8.00004 4.59533C7.82323 4.59533 7.65366 4.66556 7.52864 4.79059C7.40361 4.91561 7.33337 5.08518 7.33337 5.26199V8.59533C7.33337 8.77214 7.40361 8.94171 7.52864 9.06673C7.65366 9.19176 7.82323 9.26199 8.00004 9.26199C8.17685 9.26199 8.34642 9.19176 8.47145 9.06673C8.59647 8.94171 8.66671 8.77214 8.66671 8.59533V5.26199C8.66671 5.08518 8.59647 4.91561 8.47145 4.79059C8.34642 4.66556 8.17685 4.59533 8.00004 4.59533ZM8.00004 11.262C8.17685 11.262 8.34642 11.1918 8.47145 11.0667C8.59647 10.9417 8.66671 10.7721 8.66671 10.5953C8.66671 10.4185 8.59647 10.2489 8.47145 10.1239C8.34642 9.9989 8.17685 9.92866 8.00004 9.92866C7.82323 9.92866 7.65366 9.9989 7.52864 10.1239C7.40361 10.2489 7.33337 10.4185 7.33337 10.5953C7.33337 10.7721 7.40361 10.9417 7.52864 11.0667C7.65366 11.1918 7.82323 11.262 8.00004 11.262Z" fill="#6A7383"/>
</svg>
