<svg width="16" height="16" viewBox="0 0 16 16" fill="none" xmlns="http://www.w3.org/2000/svg">
<path d="M3.33335 3.33334C3.50002 4.33334 3.66669 4.83334 3.83335 6.00001C3.96669 6.93334 4.00002 8.38901 4.00002 9.00001C3.27769 9.33334 1.66669 10 1.66669 11.3333C1.66669 12.6667 3.33335 14.3333 8.00002 14.3333C12.6667 14.3333 14.3334 12.6667 14.3334 11.3333C14.3334 10 12 9.00001 12 9.00001C12 9.00001 12 7.16668 12.1667 6.00001C12.3334 4.83334 12.5 4.33334 12.6667 3.33334" stroke="#FF4D00" stroke-width="1.33333" stroke-linecap="round" stroke-linejoin="round"/>
<path d="M12 9.00001C12 10.3333 11.6667 11.6667 7.83337 11.6667" stroke="#FF4D00" stroke-width="1.33333" stroke-linecap="round" stroke-linejoin="round"/>
<path d="M8.00004 5.00001C10.5774 5.00001 12.6667 4.25381 12.6667 3.33334C12.6667 2.41286 10.5774 1.66667 8.00004 1.66667C5.42271 1.66667 3.33337 2.41286 3.33337 3.33334C3.33337 4.25381 5.42271 5.00001 8.00004 5.00001Z" stroke="#FF4D00" stroke-width="1.33333"/>
</svg>
