<svg width="18" height="18" viewBox="0 0 18 18" fill="none" xmlns="http://www.w3.org/2000/svg">
<path fill-rule="evenodd" clip-rule="evenodd" d="M3.36 1.2H3.3C3.0252 1.2 2.7888 1.2 2.58 1.2492C2.25676 1.32644 1.96122 1.49166 1.72611 1.72655C1.49101 1.96144 1.32553 2.25683 1.248 2.58C1.2 2.7888 1.2 3.024 1.2 3.3V6.3C1.2 6.5748 1.2 6.8112 1.2492 7.02C1.32643 7.34324 1.49165 7.63878 1.72654 7.87388C1.96144 8.10899 2.25683 8.27447 2.58 8.352C2.7888 8.4 3.024 8.4 3.3 8.4H6.3C6.5748 8.4 6.8112 8.4 7.02 8.3508C7.34323 8.27356 7.63878 8.10835 7.87388 7.87345C8.10898 7.63856 8.27447 7.34317 8.352 7.02C8.4 6.8112 8.4 6.576 8.4 6.3V3.3C8.4 3.0252 8.4 2.7888 8.3508 2.58C8.27356 2.25676 8.10834 1.96122 7.87345 1.72612C7.63856 1.49101 7.34316 1.32553 7.02 1.248C6.8112 1.2 6.576 1.2 6.3 1.2H6.24H3.36ZM2.8596 2.4168C2.9112 2.4048 2.9916 2.4 3.36 2.4H6.24C6.6096 2.4 6.6888 2.4036 6.7404 2.4168C6.84819 2.44258 6.94674 2.49771 7.02511 2.57608C7.10349 2.65446 7.15862 2.75301 7.1844 2.8608C7.1964 2.9112 7.2 2.9904 7.2 3.36V6.24C7.2 6.6096 7.1964 6.6888 7.1832 6.7404C7.15742 6.8482 7.10229 6.94675 7.02391 7.02512C6.94554 7.10349 6.84699 7.15862 6.7392 7.1844C6.69 7.1952 6.6108 7.2 6.24 7.2H3.36C2.9904 7.2 2.9112 7.1964 2.8596 7.1832C2.7518 7.15742 2.65325 7.10229 2.57488 7.02392C2.49651 6.94555 2.44137 6.847 2.4156 6.7392C2.4048 6.69 2.4 6.6108 2.4 6.24V3.36C2.4 2.9904 2.4036 2.9112 2.4168 2.8596C2.44257 2.7518 2.49771 2.65326 2.57608 2.57488C2.65445 2.49651 2.753 2.44138 2.8608 2.4156M11.76 1.2H11.7C11.4252 1.2 11.1888 1.2 10.98 1.2492C10.6568 1.32644 10.3612 1.49166 10.1261 1.72655C9.89101 1.96144 9.72553 2.25683 9.648 2.58C9.6 2.7888 9.6 3.024 9.6 3.3V6.3C9.6 6.5748 9.6 6.8112 9.6492 7.02C9.72644 7.34324 9.89165 7.63878 10.1265 7.87388C10.3614 8.10899 10.6568 8.27447 10.98 8.352C11.1888 8.4 11.424 8.4 11.7 8.4H14.7C14.9748 8.4 15.2112 8.4 15.42 8.3508C15.7432 8.27356 16.0388 8.10835 16.2739 7.87345C16.509 7.63856 16.6745 7.34317 16.752 7.02C16.8 6.8112 16.8 6.576 16.8 6.3V3.3C16.8 3.0252 16.8 2.7888 16.7508 2.58C16.6736 2.25676 16.5083 1.96122 16.2734 1.72612C16.0386 1.49101 15.7432 1.32553 15.42 1.248C15.2112 1.2 14.976 1.2 14.7 1.2H14.64H11.76ZM11.2596 2.4168C11.3112 2.4048 11.3916 2.4 11.76 2.4H14.64C15.0096 2.4 15.0888 2.4036 15.1404 2.4168C15.2482 2.44258 15.3467 2.49771 15.4251 2.57608C15.5035 2.65446 15.5586 2.75301 15.5844 2.8608C15.5964 2.9112 15.6 2.9904 15.6 3.36V6.24C15.6 6.6096 15.5952 6.6888 15.5832 6.7404C15.5574 6.8482 15.5023 6.94675 15.4239 7.02512C15.3455 7.10349 15.247 7.15862 15.1392 7.1844C15.0888 7.1964 15.0096 7.2 14.64 7.2H11.76C11.3904 7.2 11.3112 7.1964 11.2596 7.1832C11.1518 7.15742 11.0533 7.10229 10.9749 7.02392C10.8965 6.94555 10.8414 6.847 10.8156 6.7392C10.8048 6.69 10.8 6.6108 10.8 6.24V3.36C10.8 2.9904 10.8036 2.9112 10.8168 2.8596C10.8426 2.7518 10.8977 2.65326 10.9761 2.57488C11.0545 2.49651 11.153 2.44138 11.2608 2.4156M3.3 9.6H6.3C6.5748 9.6 6.8112 9.6 7.02 9.6492C7.34323 9.72644 7.63878 9.89166 7.87388 10.1265C8.10898 10.3614 8.27447 10.6568 8.352 10.98C8.4 11.1888 8.4 11.424 8.4 11.7V14.7C8.4 14.9748 8.4 15.2112 8.3508 15.42C8.27356 15.7432 8.10834 16.0388 7.87345 16.2739C7.63856 16.509 7.34316 16.6745 7.02 16.752C6.8112 16.8 6.576 16.8 6.3 16.8H3.3C3.0252 16.8 2.7888 16.8 2.58 16.7508C2.25676 16.6736 1.96122 16.5083 1.72611 16.2735C1.49101 16.0386 1.32553 15.7432 1.248 15.42C1.2 15.2112 1.2 14.976 1.2 14.7V11.7C1.2 11.4252 1.2 11.1888 1.2492 10.98C1.32643 10.6568 1.49165 10.3612 1.72654 10.1261C1.96144 9.89101 2.25683 9.72553 2.58 9.648C2.7888 9.6 3.024 9.6 3.3 9.6ZM3.36 10.8C2.9904 10.8 2.9112 10.8036 2.8596 10.8168C2.7518 10.8426 2.65325 10.8977 2.57488 10.9761C2.49651 11.0545 2.44137 11.153 2.4156 11.2608C2.4048 11.31 2.4 11.3892 2.4 11.76V14.64C2.4 15.0096 2.4036 15.0888 2.4168 15.1404C2.44257 15.2482 2.49771 15.3467 2.57608 15.4251C2.65445 15.5035 2.753 15.5586 2.8608 15.5844C2.9112 15.5964 2.9904 15.6 3.36 15.6H6.24C6.6096 15.6 6.6888 15.5952 6.7404 15.5832C6.84819 15.5574 6.94674 15.5023 7.02511 15.4239C7.10349 15.3455 7.15862 15.247 7.1844 15.1392C7.1964 15.0888 7.2 15.0096 7.2 14.64V11.76C7.2 11.3904 7.1964 11.3112 7.1832 11.2596C7.15742 11.1518 7.10229 11.0533 7.02391 10.9749C6.94554 10.8965 6.84699 10.8414 6.7392 10.8156C6.69 10.8048 6.6108 10.8 6.24 10.8H3.36ZM11.76 9.6H11.7C11.4252 9.6 11.1888 9.6 10.98 9.6492C10.6568 9.72644 10.3612 9.89166 10.1261 10.1265C9.89101 10.3614 9.72553 10.6568 9.648 10.98C9.6 11.1888 9.6 11.424 9.6 11.7V14.7C9.6 14.9748 9.6 15.2112 9.6492 15.42C9.72644 15.7432 9.89165 16.0388 10.1265 16.2739C10.3614 16.509 10.6568 16.6745 10.98 16.752C11.1888 16.8012 11.4252 16.8012 11.7 16.8012H14.7C14.9748 16.8012 15.2112 16.8012 15.42 16.752C15.743 16.6746 16.0383 16.5093 16.2732 16.2744C16.5081 16.0395 16.6734 15.7442 16.7508 15.4212C16.8 15.2124 16.8 14.976 16.8 14.7012V11.7C16.8 11.4252 16.8 11.1888 16.7508 10.98C16.6736 10.6568 16.5083 10.3612 16.2734 10.1261C16.0386 9.89101 15.7432 9.72553 15.42 9.648C15.2112 9.6 14.976 9.6 14.7 9.6H14.64H11.76ZM11.2596 10.8168C11.3112 10.8048 11.3916 10.8 11.76 10.8H14.64C15.0096 10.8 15.0888 10.8036 15.1404 10.8168C15.2482 10.8426 15.3467 10.8977 15.4251 10.9761C15.5035 11.0545 15.5586 11.153 15.5844 11.2608C15.5964 11.3112 15.6 11.3904 15.6 11.76V14.64C15.6 15.0096 15.5952 15.0888 15.5832 15.1404C15.5574 15.2482 15.5023 15.3467 15.4239 15.4251C15.3455 15.5035 15.247 15.5586 15.1392 15.5844C15.0888 15.5964 15.0096 15.6 14.64 15.6H11.76C11.3904 15.6 11.3112 15.5952 11.2596 15.5832C11.1518 15.5574 11.0533 15.5023 10.9749 15.4239C10.8965 15.3455 10.8414 15.247 10.8156 15.1392C10.8048 15.09 10.8 15.0108 10.8 14.64V11.76C10.8 11.3904 10.8036 11.3112 10.8168 11.2596C10.8426 11.1518 10.8977 11.0533 10.9761 10.9749C11.0545 10.8965 11.153 10.8414 11.2608 10.8156" fill="#3E3E3E"/>
<path d="M3.36 1.2H3.3C3.0252 1.2 2.7888 1.2 2.58 1.2492C2.25676 1.32644 1.96122 1.49166 1.72611 1.72655C1.49101 1.96144 1.32553 2.25683 1.248 2.58C1.2 2.7888 1.2 3.024 1.2 3.3V6.3C1.2 6.5748 1.2 6.8112 1.2492 7.02C1.32643 7.34324 1.49165 7.63878 1.72654 7.87388C1.96144 8.10899 2.25683 8.27447 2.58 8.352C2.7888 8.4 3.024 8.4 3.3 8.4H6.3C6.5748 8.4 6.8112 8.4 7.02 8.3508C7.34323 8.27356 7.63878 8.10835 7.87388 7.87345C8.10898 7.63856 8.27447 7.34317 8.352 7.02C8.4 6.8112 8.4 6.576 8.4 6.3V3.3C8.4 3.0252 8.4 2.7888 8.3508 2.58C8.27356 2.25676 8.10834 1.96122 7.87345 1.72612C7.63856 1.49101 7.34316 1.32553 7.02 1.248C6.8112 1.2 6.576 1.2 6.3 1.2H6.24H3.36Z" fill="#3E3E3E"/>
<path d="M11.76 1.2H11.7C11.4252 1.2 11.1888 1.2 10.98 1.2492C10.6568 1.32644 10.3612 1.49166 10.1261 1.72655C9.89101 1.96144 9.72553 2.25683 9.648 2.58C9.6 2.7888 9.6 3.024 9.6 3.3V6.3C9.6 6.5748 9.6 6.8112 9.6492 7.02C9.72644 7.34324 9.89165 7.63878 10.1265 7.87388C10.3614 8.10899 10.6568 8.27447 10.98 8.352C11.1888 8.4 11.424 8.4 11.7 8.4H14.7C14.9748 8.4 15.2112 8.4 15.42 8.3508C15.7432 8.27356 16.0388 8.10835 16.2739 7.87345C16.509 7.63856 16.6745 7.34317 16.752 7.02C16.8 6.8112 16.8 6.576 16.8 6.3V3.3C16.8 3.0252 16.8 2.7888 16.7508 2.58C16.6736 2.25676 16.5083 1.96122 16.2734 1.72612C16.0386 1.49101 15.7432 1.32553 15.42 1.248C15.2112 1.2 14.976 1.2 14.7 1.2H14.64H11.76Z" fill="#3E3E3E"/>
<path d="M11.76 9.6H11.7C11.4252 9.6 11.1888 9.6 10.98 9.6492C10.6568 9.72644 10.3612 9.89166 10.1261 10.1265C9.89101 10.3614 9.72553 10.6568 9.648 10.98C9.6 11.1888 9.6 11.424 9.6 11.7V14.7C9.6 14.9748 9.6 15.2112 9.6492 15.42C9.72644 15.7432 9.89165 16.0388 10.1265 16.2739C10.3614 16.509 10.6568 16.6745 10.98 16.752C11.1888 16.8012 11.4252 16.8012 11.7 16.8012H14.7C14.9748 16.8012 15.2112 16.8012 15.42 16.752C15.743 16.6746 16.0383 16.5093 16.2732 16.2744C16.5081 16.0395 16.6734 15.7442 16.7508 15.4212C16.8 15.2124 16.8 14.976 16.8 14.7012V11.7C16.8 11.4252 16.8 11.1888 16.7508 10.98C16.6736 10.6568 16.5083 10.3612 16.2734 10.1261C16.0386 9.89101 15.7432 9.72553 15.42 9.648C15.2112 9.6 14.976 9.6 14.7 9.6H14.64H11.76Z" fill="#3E3E3E"/>
<path d="M3.36 10.8C2.9904 10.8 2.9112 10.8036 2.8596 10.8168C2.7518 10.8426 2.65325 10.8977 2.57488 10.9761C2.49651 11.0545 2.44137 11.153 2.4156 11.2608C2.4048 11.31 2.4 11.3892 2.4 11.76V14.64C2.4 15.0096 2.4036 15.0888 2.4168 15.1404C2.44257 15.2482 2.49771 15.3467 2.57608 15.4251C2.65445 15.5035 2.753 15.5586 2.8608 15.5844C2.9112 15.5964 2.9904 15.6 3.36 15.6H6.24C6.6096 15.6 6.6888 15.5952 6.7404 15.5832C6.84819 15.5574 6.94674 15.5023 7.02511 15.4239C7.10349 15.3455 7.15862 15.247 7.1844 15.1392C7.1964 15.0888 7.2 15.0096 7.2 14.64V11.76C7.2 11.3904 7.1964 11.3112 7.1832 11.2596C7.15742 11.1518 7.10229 11.0533 7.02391 10.9749C6.94554 10.8965 6.84699 10.8414 6.7392 10.8156C6.69 10.8048 6.6108 10.8 6.24 10.8H3.36Z" fill="#3E3E3E"/>
</svg>
